<mxfile host="app.diagrams.net" modified="2024-03-04T03:14:20.272Z" agent="Mozilla/5.0 (Macintosh; Intel Mac OS X 10_15_7) AppleWebKit/537.36 (KHTML, like Gecko) Chrome/122.0.0.0 Safari/537.36" version="23.1.8" etag="MerOnaPkqsMtzedG2Xis" type="github">
  <diagram name="第 1 页" id="b6NwhjPjw_AJRDQXlUa7">
    <mxGraphModel>
      <root>
        <mxCell id="0" />
        <mxCell id="1" parent="0" />
      </root>
    </mxGraphModel>
  </diagram>
</mxfile>
